# xmcd
#
# Track frame offsets: 
#        183
#        12858
#        24763
#        35045
#        44500
#        56643
#        67528
#        76593
#        84308
#        94720
#        103205
#        115355
#        125653
#        136668
#        146705
#        156775
#        166280
#        178968
#
# Disc length: 2514 seconds
#
# Revision: 2
# Processed by: cddbd v1.5.1PL0 Copyright (c) Steve Scherf et al.
# Submitted via: ExactAudioCopy v0.95a5
#
DISCID=e509d012
DTITLE=Johnny Cash - Country Classics [CD2]
DYEAR=1995
DGENRE=Country
TTITLE0=Folsom Prison Blues
TTITLE1=Doin' My Time
TTITLE2=I Was There When It Happened
TTITLE3=Luther Played The Boogie
TTITLE4=Home Of The Blues
TTITLE5=I Just Thought You'd Like To Know
TTITLE6=Remember Me
TTITLE7=Come In Stranger
TTITLE8=The Ways Of A Woman In Love
TTITLE9=Guess Things Happen That Way
TTITLE10=You're The Nearest Thing To Heaven
TTITLE11=Straight 'A's In Love
TTITLE12=I Heard That Lonesome Whistle Blow
TTITLE13=Goodbye Little Darlin'
TTITLE14=The Story Of A Broken Heart
TTITLE15=Down The Street To 301
TTITLE16=Next In Line
TTITLE17=It's Just About Time
EXTD=
EXTT0=
EXTT1=
EXTT2=
EXTT3=
EXTT4=
EXTT5=
EXTT6=
EXTT7=
EXTT8=
EXTT9=
EXTT10=
EXTT11=
EXTT12=
EXTT13=
EXTT14=
EXTT15=
EXTT16=
EXTT17=
PLAYORDER=
